<svg width="160" height="89" viewBox="0 0 160 89" fill="none" xmlns="http://www.w3.org/2000/svg">
<g clipPath="url(#clip0_616_523)">
<path d="M60.0843 60.7208C51.0997 60.7208 43.7998 52.6721 43.7998 42.7891C43.7998 32.906 51.0997 24.8574 60.0843 24.8574C69.0689 24.8574 76.3688 32.906 76.3688 42.7891C76.3688 52.6721 69.0689 60.7208 60.0843 60.7208ZM60.0843 35.3394C56.9397 35.3394 54.2818 38.746 54.2818 42.7891C54.2818 46.8321 56.9397 50.2388 60.0843 50.2388C63.2289 50.2388 65.8868 46.8321 65.8868 42.7891C65.8868 38.746 63.2289 35.3394 60.0843 35.3394Z" fill="url(#paint0_linear_616_523)"/>
<path d="M143.715 60.7208C134.731 60.7208 127.431 52.6721 127.431 42.7891C127.431 32.906 134.731 24.8574 143.715 24.8574C152.7 24.8574 160 32.906 160 42.7891C160 52.6721 152.7 60.7208 143.715 60.7208ZM143.715 35.3394C140.571 35.3394 137.913 38.746 137.913 42.7891C137.913 46.8321 140.571 50.2388 143.715 50.2388C146.86 50.2388 149.518 46.8321 149.518 42.7891C149.518 38.746 146.897 35.3394 143.715 35.3394Z" fill="url(#paint1_linear_616_523)"/>
<path d="M121.853 58.4371C121.853 59.8596 121.329 61.095 120.318 62.1058C119.308 63.1165 118.072 63.6407 116.65 63.6407C115.115 63.6407 113.804 63.0416 112.719 61.8811L98.8304 46.1208L95.012 49.1156V58.0627C95.012 59.5976 94.4505 60.9453 93.3648 62.0309C92.2792 63.1166 90.9689 63.6781 89.3966 63.6781C87.8618 63.6781 86.5141 63.1166 85.4284 62.0309C84.3428 60.9453 83.7812 59.635 83.7812 58.0627V5.69021C83.7812 4.15534 84.3428 2.80768 85.4284 1.68461C86.5141 0.561535 87.8243 0 89.3966 0C90.9315 0 92.2792 0.561535 93.3648 1.68461C94.4505 2.80768 95.012 4.15534 95.012 5.69021V35.9756L112.045 22.8358C112.981 22.0871 114.029 21.7127 115.227 21.7127C116.65 21.7127 117.885 22.2367 118.971 23.2475C120.019 24.2583 120.543 25.4937 120.543 26.9162C120.543 28.6383 119.869 30.0234 118.484 31.0342L107.104 39.7941L120.506 54.993C121.404 55.9663 121.853 57.1268 121.853 58.4371Z" fill="url(#paint2_linear_616_523)"/>
<path d="M38.0721 58.4371C38.0721 59.8596 37.548 61.095 36.5373 62.1058C35.5265 63.1165 34.2911 63.6407 32.8686 63.6407C31.3337 63.6407 30.0235 63.0416 28.9378 61.8811L15.0492 46.1208L11.2307 49.1156V58.0627C11.2307 59.5976 10.6692 60.9453 9.58353 62.0309C8.49789 63.1166 7.18765 63.6781 5.61535 63.6781C4.08049 63.6781 2.73281 63.1166 1.64718 62.0309C0.561545 60.9453 0 59.635 0 58.0627V5.69021C0 4.15535 0.561545 2.80768 1.64718 1.68461C2.73281 0.561536 4.04305 0 5.61535 0C7.15022 0 8.49789 0.561536 9.58353 1.68461C10.6692 2.80768 11.2307 4.15535 11.2307 5.69021V35.9756L28.264 22.8358C29.1999 22.0871 30.2481 21.7127 31.446 21.7127C32.8686 21.7127 34.104 22.2367 35.1896 23.2475C36.2378 24.2583 36.7619 25.4937 36.7619 26.9162C36.7619 28.6383 36.0881 30.0234 34.7029 31.0341L23.3225 39.7941L36.7244 54.993C37.6229 55.9663 38.0721 57.1268 38.0721 58.4371Z" fill="url(#paint3_linear_616_523)"/>
<path d="M102.012 86.9625C92.0172 86.9625 82.4711 82.6949 75.7702 75.2452C74.5722 73.8975 74.6845 71.8011 76.0322 70.6031C77.3799 69.4052 79.4763 69.5175 80.6742 70.8652C86.1024 76.9297 93.889 80.4113 102.012 80.4113C110.024 80.4113 117.735 77.0046 123.126 71.0898C124.361 69.7421 126.42 69.6673 127.768 70.9026C129.116 72.138 129.191 74.1969 127.955 75.5446C121.329 82.7697 111.858 86.9625 102.012 86.9625Z" fill="url(#paint4_linear_616_523)"/>
<path d="M102.012 88.8346C91.4927 88.8346 81.4225 84.3423 74.3846 76.4808C73.4487 75.4701 72.9995 74.1224 73.0744 72.7373C73.1492 71.3521 73.7482 70.0793 74.7964 69.1809C76.9302 67.2716 80.1871 67.4589 82.0964 69.5927C87.1876 75.2455 94.4501 78.5024 102.012 78.5024C109.499 78.5024 116.687 75.3204 121.741 69.8173C122.677 68.8066 123.949 68.2076 125.334 68.1327C126.72 68.0579 128.03 68.5445 129.041 69.4804C131.137 71.3896 131.287 74.6839 129.378 76.7803C122.377 84.4172 112.382 88.8346 102.012 88.8346ZM78.2405 71.6142C77.9036 71.6142 77.5666 71.7265 77.3046 71.9885C77.0051 72.2506 76.8554 72.5875 76.8179 72.9619C76.7805 73.3363 76.9302 73.7106 77.1923 73.9727C83.5189 81.0106 92.5784 85.0537 102.012 85.0537C111.334 85.0537 120.318 81.1229 126.607 74.2347C127.131 73.6731 127.094 72.7748 126.532 72.2507C126.27 71.9886 125.896 71.8763 125.522 71.8763C125.147 71.8763 124.81 72.0635 124.548 72.3255C118.783 78.6147 110.585 82.246 102.049 82.246C93.4019 82.246 85.1287 78.5398 79.3261 72.1009C79.0266 71.8014 78.6523 71.6142 78.2405 71.6142Z" fill="url(#paint5_linear_616_523)"/>
</g>
<defs>
<linearGradient id="paint0_linear_616_523" x1="-6.60707" y1="13.4625" x2="154.551" y2="84.3015" gradientUnits="userSpaceOnUse">
<stop stopColor="#9458E8"/>
<stop offset="0.335" stopColor="#A43EE7"/>
<stop offset="0.9973" stopColor="#CA00E5"/>
</linearGradient>
<linearGradient id="paint1_linear_616_523" x1="6.93547" y1="-17.3481" x2="168.094" y2="53.4909" gradientUnits="userSpaceOnUse">
<stop stopColor="#9458E8"/>
<stop offset="0.335" stopColor="#A43EE7"/>
<stop offset="0.9973" stopColor="#CA00E5"/>
</linearGradient>
<linearGradient id="paint2_linear_616_523" x1="2.17547" y1="-6.51759" x2="163.334" y2="64.3214" gradientUnits="userSpaceOnUse">
<stop stopColor="#9458E8"/>
<stop offset="0.335" stopColor="#A43EE7"/>
<stop offset="0.9973" stopColor="#CA00E5"/>
</linearGradient>
<linearGradient id="paint3_linear_616_523" x1="-11.3907" y1="24.3452" x2="149.768" y2="95.1842" gradientUnits="userSpaceOnUse">
<stop stopColor="#9458E8"/>
<stop offset="0.335" stopColor="#A43EE7"/>
<stop offset="0.9973" stopColor="#CA00E5"/>
</linearGradient>
<linearGradient id="paint4_linear_616_523" x1="-11.602" y1="24.8258" x2="149.556" y2="95.6649" gradientUnits="userSpaceOnUse">
<stop stopColor="#9458E8"/>
<stop offset="0.335" stopColor="#A43EE7"/>
<stop offset="0.9973" stopColor="#CA00E5"/>
</linearGradient>
<linearGradient id="paint5_linear_616_523" x1="-11.6018" y1="24.825" x2="149.557" y2="95.6639" gradientUnits="userSpaceOnUse">
<stop stopColor="#9458E8"/>
<stop offset="0.335" stopColor="#A43EE7"/>
<stop offset="0.9973" stopColor="#CA00E5"/>
</linearGradient>
<clipPath id="clip0_616_523">
<rect width="160" height="89" fill="white"/>
</clipPath>
</defs>
</svg>
